<svg width="14" height="14" viewBox="0 0 14 14" fill="none" xmlns="http://www.w3.org/2000/svg">
<path d="M14 2.625C13.475 2.8875 12.95 2.975 12.3375 3.0625C12.95 2.7125 13.3875 2.1875 13.5625 1.4875C13.0375 1.8375 12.425 2.0125 11.725 2.1875C11.2 1.6625 10.4125 1.3125 9.625 1.3125C8.1375 1.3125 6.825 2.625 6.825 4.2C6.825 4.4625 6.825 4.6375 6.9125 4.8125C4.55 4.725 2.3625 3.5875 0.9625 1.8375C0.7 2.275 0.6125 2.7125 0.6125 3.325C0.6125 4.2875 1.1375 5.1625 1.925 5.6875C1.4875 5.6875 1.05 5.5125 0.6125 5.3375C0.6125 6.7375 1.575 7.875 2.8875 8.1375C2.625 8.225 2.3625 8.225 2.1 8.225C1.925 8.225 1.75 8.225 1.575 8.1375C1.925 9.275 2.975 10.15 4.2875 10.15C3.325 10.9375 2.1 11.375 0.7 11.375C0.4375 11.375 0.2625 11.375 0 11.375C1.3125 12.1625 2.8 12.6875 4.375 12.6875C9.625 12.6875 12.5125 8.3125 12.5125 4.55C12.5125 4.4625 12.5125 4.2875 12.5125 4.2C13.125 3.7625 13.65 3.2375 14 2.625Z" fill="#005450"/>
</svg>
