<svg width="10" height="10" viewBox="0 0 10 10" fill="none" xmlns="http://www.w3.org/2000/svg">
  <path
    d="M5 0C2.25 0 0 2.25 0 5C0 7.75 2.25 10 5 10C7.75 10 10 7.75 10 5C10 2.25 7.75 0 5 0ZM5 8.125C4.625 8.125 4.375 7.875 4.375 7.5C4.375 7.125 4.625 6.875 5 6.875C5.375 6.875 5.625 7.125 5.625 7.5C5.625 7.875 5.375 8.125 5 8.125ZM5.9375 5.25C5.625 5.4375 5.625 5.5 5.625 5.625V6.25H4.375V5.625C4.375 4.8125 4.875 4.4375 5.25 4.1875C5.5625 4 5.625 3.9375 5.625 3.75C5.625 3.375 5.375 3.125 5 3.125C4.75 3.125 4.5625 3.25 4.4375 3.4375L4.125 4L3.0625 3.375L3.375 2.8125C3.6875 2.25 4.3125 1.875 5 1.875C6.0625 1.875 6.875 2.6875 6.875 3.75C6.875 4.625 6.3125 5 5.9375 5.25Z"
    fill="#759F9E"/>
</svg>
