<svg width="137" height="10" viewBox="0 0 137 10" fill="none" xmlns="http://www.w3.org/2000/svg">
<path d="M0 5.25895C0 4.34705 0.198454 3.53253 0.595361 2.8154C1.0009 2.08941 1.5488 1.52721 2.23908 1.12881C2.93798 0.721548 3.71885 0.517919 4.5817 0.517919C5.59122 0.517919 6.47564 0.783523 7.23494 1.31473C7.99424 1.84594 8.52489 2.58078 8.82688 3.51925H6.74312C6.53603 3.07657 6.24267 2.74457 5.86302 2.52323C5.49199 2.30189 5.06057 2.19123 4.56875 2.19123C4.04242 2.19123 3.57217 2.3196 3.158 2.57635C2.75247 2.82425 2.43322 3.17839 2.20025 3.63877C1.97591 4.09915 1.86374 4.63921 1.86374 5.25895C1.86374 5.86984 1.97591 6.40991 2.20025 6.87914C2.43322 7.33952 2.75247 7.69809 3.158 7.95484C3.57217 8.20274 4.04242 8.32668 4.56875 8.32668C5.06057 8.32668 5.49199 8.21602 5.86302 7.99468C6.24267 7.76449 6.53603 7.42806 6.74312 6.98538H8.82688C8.52489 7.9327 7.99424 8.67197 7.23494 9.20318C6.48426 9.72553 5.59985 9.98671 4.5817 9.98671C3.71885 9.98671 2.93798 9.78751 2.23908 9.3891C1.5488 8.98184 1.0009 8.41965 0.595361 7.70251C0.198454 6.98538 0 6.17086 0 5.25895Z" fill="#00413E"/>
<path d="M14.9951 0.637441V7.14474C14.9951 8.0478 14.7405 8.75165 14.2314 9.2563C13.7224 9.75209 13.0407 9.99999 12.1865 9.99999C11.3237 9.99999 10.6248 9.74324 10.0898 9.22974C9.56347 8.71624 9.3003 7.99911 9.3003 7.07834H11.1123C11.1209 7.47675 11.2115 7.78662 11.3841 8.00796C11.5653 8.2293 11.8241 8.33996 12.1606 8.33996C12.4885 8.33996 12.7387 8.23372 12.9113 8.02124C13.0839 7.80876 13.1702 7.51659 13.1702 7.14474V0.637441H14.9951Z" fill="#00413E"/>
<path d="M22.0177 9.99999C21.3878 9.99999 20.8183 9.88932 20.3092 9.66798C19.8088 9.44665 19.4119 9.12792 19.1185 8.71181C18.8251 8.2957 18.6741 7.80433 18.6655 7.23771H20.6069C20.6328 7.61841 20.7622 7.91942 20.9952 8.14076C21.2368 8.3621 21.5647 8.47277 21.9788 8.47277C22.4016 8.47277 22.7338 8.37095 22.9754 8.16732C23.217 7.95484 23.3378 7.68038 23.3378 7.34395C23.3378 7.06949 23.2558 6.84373 23.0919 6.66666C22.928 6.48959 22.7209 6.35236 22.4707 6.25497C22.2291 6.14873 21.8925 6.03363 21.4611 5.90969C20.8744 5.73262 20.3955 5.55997 20.0245 5.39176C19.6621 5.21469 19.3472 4.95351 19.0797 4.60822C18.8208 4.25409 18.6914 3.78485 18.6914 3.20052C18.6914 2.65161 18.8251 2.17352 19.0926 1.76626C19.3601 1.359 19.7354 1.04913 20.2186 0.836644C20.7018 0.615307 21.254 0.504639 21.8753 0.504639C22.8072 0.504639 23.5621 0.739256 24.1403 1.20849C24.727 1.66887 25.0506 2.31517 25.1109 3.1474H23.1178C23.1005 2.82868 22.9668 2.5675 22.7166 2.36387C22.475 2.15138 22.1514 2.04514 21.7459 2.04514C21.3921 2.04514 21.1074 2.1381 20.8916 2.32403C20.6846 2.50995 20.581 2.77998 20.581 3.13412C20.581 3.38202 20.6587 3.59007 20.814 3.75829C20.9779 3.91765 21.1764 4.05046 21.4094 4.1567C21.6509 4.25409 21.9875 4.36918 22.4189 4.50198C23.0056 4.67905 23.4845 4.85612 23.8555 5.03319C24.2265 5.21026 24.5458 5.47586 24.8133 5.83C25.0808 6.18414 25.2145 6.64895 25.2145 7.22443C25.2145 7.72022 25.0894 8.1806 24.8392 8.60557C24.5889 9.03054 24.2222 9.37139 23.739 9.62814C23.2558 9.87604 22.682 9.99999 22.0177 9.99999Z" fill="#00413E"/>
<path d="M32.286 0.637441V2.1381H29.8787V9.90703H28.0667V2.1381H25.6594V0.637441H32.286Z" fill="#00413E"/>
<path d="M38.5004 8.14076H34.9024L34.307 9.90703H32.4044L35.653 0.62416H37.7627L41.0113 9.90703H39.0958L38.5004 8.14076ZM38.0086 6.65338L36.7014 2.77556L35.3942 6.65338H38.0086Z" fill="#00413E"/>
<path d="M47.7262 0.637441V2.1381H45.3189V9.90703H43.5069V2.1381H41.0996V0.637441H47.7262Z" fill="#00413E"/>
<path d="M50.1872 0.637441V6.37449C50.1872 7.00309 50.3468 7.4856 50.6661 7.82204C50.9853 8.14961 51.434 8.3134 52.0121 8.3134C52.5989 8.3134 53.0519 8.14961 53.3711 7.82204C53.6904 7.4856 53.85 7.00309 53.85 6.37449V0.637441H55.6749V6.36121C55.6749 7.14917 55.5066 7.81761 55.1701 8.36652C54.8423 8.90659 54.3979 9.31385 53.837 9.5883C53.2848 9.86276 52.6679 9.99999 51.9862 9.99999C51.3132 9.99999 50.7006 9.86276 50.1484 9.5883C49.6048 9.31385 49.1734 8.90659 48.8541 8.36652C48.5349 7.81761 48.3752 7.14917 48.3752 6.36121V0.637441H50.1872Z" fill="#00413E"/>
<path d="M59.8976 9.99999C59.2678 9.99999 58.6983 9.88932 58.1892 9.66798C57.6888 9.44665 57.2918 9.12792 56.9985 8.71181C56.7051 8.2957 56.5541 7.80433 56.5455 7.23771H58.4869C58.5128 7.61841 58.6422 7.91942 58.8752 8.14076C59.1168 8.3621 59.4446 8.47277 59.8588 8.47277C60.2816 8.47277 60.6138 8.37095 60.8554 8.16732C61.097 7.95484 61.2178 7.68038 61.2178 7.34395C61.2178 7.06949 61.1358 6.84373 60.9719 6.66666C60.8079 6.48959 60.6009 6.35236 60.3506 6.25497C60.109 6.14873 59.7725 6.03363 59.3411 5.90969C58.7544 5.73262 58.2755 5.55997 57.9045 5.39176C57.5421 5.21469 57.2271 4.95351 56.9597 4.60822C56.7008 4.25409 56.5714 3.78485 56.5714 3.20052C56.5714 2.65161 56.7051 2.17352 56.9726 1.76626C57.2401 1.359 57.6154 1.04913 58.0986 0.836644C58.5818 0.615307 59.134 0.504639 59.7553 0.504639C60.6871 0.504639 61.4421 0.739256 62.0202 1.20849C62.607 1.66887 62.9305 2.31517 62.9909 3.1474H60.9978C60.9805 2.82868 60.8468 2.5675 60.5965 2.36387C60.3549 2.15138 60.0314 2.04514 59.6258 2.04514C59.2721 2.04514 58.9873 2.1381 58.7716 2.32403C58.5645 2.50995 58.461 2.77998 58.461 3.13412C58.461 3.38202 58.5387 3.59007 58.694 3.75829C58.8579 3.91765 59.0564 4.05046 59.2893 4.1567C59.5309 4.25409 59.8674 4.36918 60.2989 4.50198C60.8856 4.67905 61.3645 4.85612 61.7355 5.03319C62.1065 5.21026 62.4258 5.47586 62.6932 5.83C62.9607 6.18414 63.0945 6.64895 63.0945 7.22443C63.0945 7.72022 62.9694 8.1806 62.7191 8.60557C62.4689 9.03054 62.1022 9.37139 61.619 9.62814C61.1358 9.87604 60.562 9.99999 59.8976 9.99999Z" fill="#00413E"/>
<path d="M71.0922 7.33067C70.7643 7.33067 70.4623 7.25099 70.1862 7.09162C69.9101 6.92341 69.6901 6.69764 69.5261 6.41433C69.3708 6.13102 69.2932 5.82115 69.2932 5.48472C69.2932 5.13943 69.3708 4.82513 69.5261 4.54182C69.6901 4.25851 69.9101 4.03717 70.1862 3.87781C70.4623 3.7096 70.7643 3.62549 71.0922 3.62549C71.4287 3.62549 71.735 3.7096 72.0111 3.87781C72.2959 4.03717 72.5159 4.25851 72.6712 4.54182C72.8352 4.82513 72.9171 5.13943 72.9171 5.48472C72.9171 5.82115 72.8352 6.13102 72.6712 6.41433C72.5159 6.69764 72.2959 6.92341 72.0111 7.09162C71.735 7.25099 71.4287 7.33067 71.0922 7.33067Z" fill="#00413E"/>
<path d="M78.6514 5.25896C78.6514 4.34706 78.8498 3.53254 79.2467 2.81541C79.6523 2.08942 80.2002 1.52722 80.8904 1.12882C81.5893 0.721558 82.3702 0.517929 83.2331 0.517929C84.2426 0.517929 85.127 0.783533 85.8863 1.31474C86.6456 1.84595 87.1763 2.58079 87.4782 3.51926H85.3945C85.1874 3.07658 84.894 2.74458 84.5144 2.52324C84.1434 2.3019 83.7119 2.19124 83.2201 2.19124C82.6938 2.19124 82.2235 2.31961 81.8094 2.57636C81.4038 2.82426 81.0846 3.1784 80.8516 3.63878C80.6273 4.09916 80.5151 4.63922 80.5151 5.25896C80.5151 5.86985 80.6273 6.40992 80.8516 6.87915C81.0846 7.33953 81.4038 7.6981 81.8094 7.95485C82.2235 8.20274 82.6938 8.32669 83.2201 8.32669C83.7119 8.32669 84.1434 8.21603 84.5144 7.99469C84.894 7.7645 85.1874 7.42807 85.3945 6.98539H87.4782C87.1763 7.93271 86.6456 8.67198 85.8863 9.20319C85.1356 9.72554 84.2512 9.98672 83.2331 9.98672C82.3702 9.98672 81.5893 9.78752 80.8904 9.38911C80.2002 8.98185 79.6523 8.41965 79.2467 7.70252C78.8498 6.98539 78.6514 6.17087 78.6514 5.25896Z" fill="#DE5558"/>
<path d="M92.5722 10C91.7266 10 90.95 9.79637 90.2425 9.38911C89.535 8.98185 88.9741 8.41965 88.56 7.70252C88.1458 6.97654 87.9387 6.15759 87.9387 5.24568C87.9387 4.34263 88.1458 3.53254 88.56 2.81541C88.9741 2.08942 89.535 1.5228 90.2425 1.11554C90.95 0.708278 91.7266 0.504649 92.5722 0.504649C93.4264 0.504649 94.203 0.708278 94.9019 1.11554C95.6094 1.5228 96.1659 2.08942 96.5715 2.81541C96.9856 3.53254 97.1927 4.34263 97.1927 5.24568C97.1927 6.15759 96.9856 6.97654 96.5715 7.70252C96.1659 8.41965 95.6094 8.98185 94.9019 9.38911C94.1943 9.79637 93.4178 10 92.5722 10ZM92.5722 8.33997C93.1158 8.33997 93.5947 8.21603 94.0088 7.96813C94.423 7.71138 94.7466 7.34838 94.9795 6.87915C95.2125 6.40992 95.329 5.86543 95.329 5.24568C95.329 4.62594 95.2125 4.08588 94.9795 3.6255C94.7466 3.15626 94.423 2.7977 94.0088 2.5498C93.5947 2.3019 93.1158 2.17796 92.5722 2.17796C92.0286 2.17796 91.5454 2.3019 91.1226 2.5498C90.7084 2.7977 90.3849 3.15626 90.1519 3.6255C89.9189 4.08588 89.8025 4.62594 89.8025 5.24568C89.8025 5.86543 89.9189 6.40992 90.1519 6.87915C90.3849 7.34838 90.7084 7.71138 91.1226 7.96813C91.5454 8.21603 92.0286 8.33997 92.5722 8.33997Z" fill="#DE5558"/>
<path d="M106.009 0.637451L102.695 9.90704H100.495L97.1818 0.637451H99.1232L101.608 8.00797L104.08 0.637451H106.009Z" fill="#DE5558"/>
<path d="M108.26 0.637451V9.90704H106.448V0.637451H108.26Z" fill="#DE5558"/>
<path d="M112.561 0.637451C113.51 0.637451 114.343 0.8278 115.059 1.2085C115.784 1.5892 116.34 2.13369 116.729 2.84197C117.125 3.54139 117.324 4.35591 117.324 5.28552C117.324 6.21514 117.125 7.02966 116.729 7.72908C116.34 8.41965 115.784 8.95529 115.059 9.33599C114.343 9.71669 113.51 9.90704 112.561 9.90704H109.403V0.637451H112.561ZM112.496 8.32669C113.445 8.32669 114.179 8.06109 114.697 7.52988C115.214 6.99867 115.473 6.25055 115.473 5.28552C115.473 4.3205 115.214 3.56795 114.697 3.02789C114.179 2.47897 113.445 2.20452 112.496 2.20452H111.215V8.32669H112.496Z" fill="#DE5558"/>
<path d="M125.203 4.38247V5.94953H118.163V4.38247H125.203Z" fill="#DE5558"/>
<path d="M126.047 1.93891V0.225764H129.166V9.90704H127.302V1.93891H126.047Z" fill="#DE5558"/>
<path d="M132.405 7.1846C132.474 7.57415 132.63 7.87517 132.871 8.08765C133.121 8.29128 133.454 8.39309 133.868 8.39309C134.403 8.39309 134.791 8.16733 135.033 7.7158C135.274 7.25542 135.395 6.48517 135.395 5.40505C135.197 5.68836 134.916 5.90969 134.554 6.06906C134.2 6.22842 133.816 6.3081 133.402 6.3081C132.85 6.3081 132.349 6.19301 131.901 5.96282C131.46 5.72377 131.111 5.37406 130.852 4.91368C130.593 4.44444 130.464 3.87782 130.464 3.21381C130.464 2.23108 130.749 1.45197 131.318 0.876494C131.888 0.292165 132.664 0 133.648 0C134.873 0 135.736 0.402833 136.236 1.2085C136.745 2.01417 137 3.22709 137 4.84728C137 5.99823 136.901 6.94112 136.702 7.67596C136.512 8.4108 136.18 8.96857 135.706 9.34927C135.24 9.72997 134.601 9.92032 133.79 9.92032C133.152 9.92032 132.608 9.79637 132.159 9.54847C131.711 9.29172 131.366 8.95972 131.124 8.55246C130.891 8.13634 130.757 7.68039 130.723 7.1846H132.405ZM133.777 4.79416C134.226 4.79416 134.58 4.6525 134.839 4.36919C135.097 4.08588 135.227 3.70518 135.227 3.22709C135.227 2.70474 135.089 2.3019 134.813 2.01859C134.545 1.72643 134.178 1.58035 133.712 1.58035C133.247 1.58035 132.876 1.73085 132.599 2.03187C132.332 2.32404 132.198 2.71359 132.198 3.20053C132.198 3.66977 132.328 4.05489 132.586 4.35591C132.854 4.64807 133.251 4.79416 133.777 4.79416Z" fill="#DE5558"/>
</svg>
