<svg width="24" height="24" viewBox="0 0 24 24" fill="none" xmlns="http://www.w3.org/2000/svg">
<path d="M23 11C22.4 11 22 11.4 22 12V14H2V7C2 6.4 1.6 6 1 6C0.4 6 0 6.4 0 7V23C0 23.6 0.4 24 1 24C1.6 24 2 23.6 2 23V20H22V23C22 23.6 22.4 24 23 24C23.6 24 24 23.6 24 23V12C24 11.4 23.6 11 23 11Z" fill="#00413E"/>
<path d="M15.5 2.5H13.5V0.5C13.5 0.2 13.3 0 13 0H11C10.7 0 10.5 0.2 10.5 0.5V2.5H8.5C8.2 2.5 8 2.7 8 3V5C8 5.3 8.2 5.5 8.5 5.5H10.5V7.5C10.5 7.8 10.7 8 11 8H13C13.3 8 13.5 7.8 13.5 7.5V5.5H15.5C15.8 5.5 16 5.3 16 5V3C16 2.7 15.8 2.5 15.5 2.5Z" fill="#00413E"/>
</svg>
