<svg width="39" height="34" viewBox="0 0 39 34" fill="none" xmlns="http://www.w3.org/2000/svg">
  <g opacity="0.4">
    <path
      fill-rule="evenodd"
      clip-rule="evenodd"
      d="M1.00027 12.5039V16.9775C1.00027 18.3062 0.94851 20.1729 2.27831 20.1729V26.5638H7.39045V20.1729C8.71833 20.1729 8.66721 18.3049 8.66849 16.9775V12.5039H1.00027V12.5039Z"
      stroke="#005450"
      stroke-width="1.27665"/>
    <path
      fill-rule="evenodd"
      clip-rule="evenodd"
      d="M30.3951 12.5039V16.9775C30.3951 18.5554 31.0341 19.5339 31.6731 19.5339V26.5638H36.7853V19.5339C37.4741 19.5339 38.062 18.3049 38.0633 16.9775V12.5039H30.3951V12.5039Z"
      stroke="#005450"
      stroke-width="1.27665"/>
    <path
      fill-rule="evenodd"
      clip-rule="evenodd"
      d="M13.7806 12.5039H25.2829V20.812C25.2829 22.5842 24.4982 24.0075 22.7269 24.0075V32.9547H16.3367V24.0075C14.5634 24.0075 13.7806 22.5842 13.7806 20.812V12.5039V12.5039Z"
      stroke="#005450"
      stroke-width="1.27665"/>
    <path
      fill-rule="evenodd"
      clip-rule="evenodd"
      d="M36.7853 7.39033C36.7853 8.80207 35.6408 9.94667 34.2292 9.94667C32.8176 9.94667 31.6732 8.80207 31.6732 7.39033C31.6732 5.97859 32.8176 4.83398 34.2292 4.83398C35.6408 4.83398 36.7853 5.97859 36.7853 7.39033V7.39033Z"
      stroke="#005450"
      stroke-width="1.27665"/>
    <path
      fill-rule="evenodd"
      clip-rule="evenodd"
      d="M7.39043 7.39033C7.39043 8.80207 6.24594 9.94667 4.83435 9.94667C3.42276 9.94667 2.27828 8.80207 2.27828 7.39033C2.27828 5.97859 3.42276 4.83398 4.83435 4.83398C6.24594 4.83398 7.39043 5.97859 7.39043 7.39033V7.39033Z"
      stroke="#005450"
      stroke-width="1.27665"/>
    <path
      fill-rule="evenodd"
      clip-rule="evenodd"
      d="M24.0049 5.4736C24.0049 7.94431 22.0023 9.94721 19.5318 9.94721C17.0614 9.94721 15.0587 7.94431 15.0587 5.4736C15.0587 3.0029 17.0614 1 19.5318 1C22.0023 1 24.0049 3.0029 24.0049 5.4736V5.4736Z"
      stroke="#005450"
      stroke-width="1.27665"/>
  </g>
</svg>
