<svg width="16" height="16" viewBox="0 0 16 16" fill="none" xmlns="http://www.w3.org/2000/svg">
  <circle cx="8" cy="8" r="8" fill="#BFCACA"/>
  <path
    d="M11.417 9.33301C11.1723 9.96098 10.7592 10.5094 10.2232 10.9179C9.6871 11.3264 9.04882 11.5793 8.37843 11.6487C7.70803 11.7182 7.03147 11.6015 6.42307 11.3115C5.81466 11.0215 5.29794 10.5695 4.92969 10.005"
    stroke="#E9EBEB"
    stroke-linecap="round"
    stroke-linejoin="round"/>
  <path d="M12 4V7.33333L9 7L12 4Z" fill="#E9EBEB"/>
  <path
    d="M4.58362 6.66629C4.82835 6.03831 5.24144 5.48994 5.77749 5.08142C6.31354 4.67289 6.95182 4.42001 7.62221 4.35057C8.2926 4.28113 8.96917 4.3978 9.57757 4.68778C10.186 4.97775 10.7027 5.42981 11.071 5.99429"
    stroke="#E9EBEB"
    stroke-linecap="round"
    stroke-linejoin="round"/>
  <path d="M4 12.0003V8.66699L7 9.00033L4 12.0003Z" fill="#E9EBEB"/>
</svg>
