<svg width="10" height="12" viewBox="0 0 10 12" fill="none" xmlns="http://www.w3.org/2000/svg">
<g opacity="0.5">
<path d="M9.27128 7.6665C8.96536 8.45147 8.449 9.13693 7.77894 9.64759C7.10887 10.1583 6.31102 10.4743 5.47303 10.5611C4.63504 10.648 3.78934 10.5021 3.02883 10.1396C2.26832 9.77717 1.62243 9.2121 1.16211 8.5065" stroke="#005450" stroke-linecap="round" stroke-linejoin="round"/>
<path d="M10 1V5.16667L6.25 4.75L10 1Z" fill="#005450"/>
<path d="M0.72998 4.3331C1.0359 3.54814 1.55225 2.86267 2.22232 2.35201C2.89238 1.84136 3.69024 1.52526 4.52822 1.43846C5.36621 1.35165 6.21191 1.4975 6.97242 1.85997C7.73294 2.22244 8.37883 2.78751 8.83915 3.4931" stroke="#005450" stroke-linecap="round" stroke-linejoin="round"/>
<path d="M0 11.0002V6.8335L3.75 7.25016L0 11.0002Z" fill="#005450"/>
</g>
</svg>
