<svg width="16" height="16" viewBox="0 0 16 16" fill="none" xmlns="http://www.w3.org/2000/svg">
  <circle cx="8" cy="8" r="8" fill="#25B894"/>
  <path
    d="M11.417 9.33325C11.1723 9.96123 10.7592 10.5096 10.2232 10.9181C9.6871 11.3266 9.04882 11.5795 8.37843 11.649C7.70803 11.7184 7.03147 11.6017 6.42307 11.3118C5.81466 11.0218 5.29794 10.5697 4.92969 10.0053"
    stroke="white"
    stroke-linecap="round"
    stroke-linejoin="round"/>
  <path d="M12 4V7.33333L9 7L12 4Z" fill="white"/>
  <path
    d="M4.5835 6.66653C4.82823 6.03856 5.24131 5.49019 5.77737 5.08166C6.31342 4.67313 6.9517 4.42026 7.62209 4.35082C8.29248 4.28137 8.96904 4.39805 9.57745 4.68802C10.1859 4.978 10.7026 5.43005 11.0708 5.99453"
    stroke="white"
    stroke-linecap="round"
    stroke-linejoin="round"/>
  <path d="M4 12.0001V8.66675L7 9.00008L4 12.0001Z" fill="white"/>
</svg>
