<svg width="10" height="10" viewBox="0 0 10 10" fill="none" xmlns="http://www.w3.org/2000/svg">
  <g opacity="0.5">
    <path d="M2.95459 7.04536L7.04536 2.95459"
      stroke="#005450"
      stroke-linecap="round"
      stroke-linejoin="round"/>
    <path d="M4.18188 2.54554L5.54984 1.17759C5.98387 0.743726 6.57245 0.5 7.18614 0.5C7.79984 0.5 8.38842 0.743726 8.82245 1.17759V1.17759C9.25631 1.61162 9.50004 2.2002 9.50004 2.81389C9.50004 3.42759 9.25631 4.01616 8.82245 4.4502L7.4545 5.81815"
      stroke="#005450"
      stroke-linecap="round"
      stroke-linejoin="round"/>
    <path d="M2.54554 4.18182L1.17759 5.54978C0.743726 5.98381 0.5 6.57239 0.5 7.18608C0.5 7.79978 0.743726 8.38835 1.17759 8.82239V8.82239C1.61162 9.25625 2.2002 9.49998 2.81389 9.49998C3.42759 9.49998 4.01616 9.25625 4.4502 8.82239L5.81815 7.45444"
      stroke="#005450"
      stroke-linecap="round"
      stroke-linejoin="round"/>
  </g>
</svg>
