<svg width="24" height="24" viewBox="0 0 24 24" fill="none" xmlns="http://www.w3.org/2000/svg">
<path d="M9 6C10.6569 6 12 4.65685 12 3C12 1.34315 10.6569 0 9 0C7.34315 0 6 1.34315 6 3C6 4.65685 7.34315 6 9 6Z" fill="#00413E"/>
<path d="M13 7H5C3.346 7 2 8.346 2 10V15C2 15.553 2.447 16 3 16C3.553 16 4 15.553 4 15V10C4 9.448 4.448 9 5 9V23C5 23.553 5.447 24 6 24C6.553 24 7 23.553 7 23V18H11V23C11 23.553 11.447 24 12 24C12.553 24 13 23.553 13 23V9C13.552 9 14 9.448 14 10V15C14 15.553 14.447 16 15 16C15.553 16 16 15.553 16 15V10C16 8.346 14.654 7 13 7Z" fill="#00413E"/>
<path fill-rule="evenodd" clip-rule="evenodd" d="M11.5684 21.2524C11.5682 21.2522 11.5681 21.252 12 21C12.4319 20.7481 12.4318 20.7479 12.4317 20.7478L12.4315 20.7475L12.4313 20.747L12.4311 20.7468C12.4312 20.747 12.4315 20.7473 12.4318 20.7478L12.4382 20.7583C12.4447 20.7688 12.4556 20.7858 12.4707 20.8086C12.5011 20.8542 12.5487 20.9224 12.6135 21.0056C12.7433 21.1725 12.9394 21.3967 13.2004 21.6204C13.7223 22.0677 14.4862 22.5 15.5 22.5C16.5139 22.5 17.2778 22.0677 17.7996 21.6204C18.0607 21.3967 18.2567 21.1725 18.3866 21.0056C18.4513 20.9224 18.4989 20.8542 18.5293 20.8086C18.5445 20.7858 18.5553 20.7688 18.5618 20.7583L18.5683 20.7478C18.5687 20.7471 18.569 20.7467 18.569 20.7466L18.5688 20.747L18.5685 20.7475L18.5683 20.7478C18.5682 20.7479 18.5681 20.7481 19 21C19.4319 21.252 19.4318 21.2522 19.4317 21.2524L19.4314 21.2528L19.4308 21.2538L19.4293 21.2564L19.4249 21.2637L19.4109 21.2866C19.3991 21.3055 19.3826 21.3314 19.3614 21.3633C19.3189 21.4271 19.2571 21.5152 19.176 21.6195C19.0141 21.8275 18.7727 22.1034 18.4504 22.3797C17.8056 22.9324 16.8195 23.5 15.5 23.5C14.1805 23.5 13.1944 22.9324 12.5496 22.3797C12.2273 22.1034 11.9859 21.8275 11.8241 21.6195C11.743 21.5152 11.6812 21.4271 11.6387 21.3633C11.6174 21.3314 11.6009 21.3055 11.5892 21.2866L11.5751 21.2637L11.5707 21.2564L11.5692 21.2538L11.5686 21.2528L11.5684 21.2524ZM18.569 20.7466C18.569 20.7466 18.569 20.7466 18.569 20.7466Z" fill="#00413E"/>
<path d="M20.5 24C21.8807 24 23 22.8807 23 21.5C23 20.1193 21.8807 19 20.5 19C19.1193 19 18 20.1193 18 21.5C18 22.8807 19.1193 24 20.5 24Z" fill="#00413E"/>
</svg>
